<?xml version="1.0" encoding="UTF-8"?><svg id="Layer_1" xmlns="http://www.w3.org/2000/svg" viewBox="0 0 48 48"><defs><style>.cls-1{fill:#36593e;}</style></defs><path class="cls-1" d="M15.75,36c-2.57,0-4.52-.95-5.85-2.85-1.33-1.9-1.97-4.03-1.9-6.4l-.9-1.35c-.37-.57-.97-1.85-1.82-3.85s-1.27-4.52-1.27-7.55c0-3.43,.85-6.29,2.55-8.57,1.7-2.28,3.85-3.43,6.45-3.43,2.83,0,5.04,1.26,6.62,3.78s2.38,5.26,2.38,8.22c0,1.93-.27,3.72-.8,5.35-.53,1.63-1,2.95-1.4,3.95l.4,.65c.27,.47,.63,1.21,1.1,2.23s.7,2.07,.7,3.17c0,1.9-.59,3.48-1.77,4.75s-2.68,1.9-4.48,1.9Zm-6-12.05l7.2-1.5c.47-1.27,.93-2.67,1.38-4.2,.45-1.53,.67-2.95,.67-4.25,0-2.23-.52-4.29-1.58-6.18-1.05-1.88-2.52-2.82-4.42-2.82-1.73,0-3.17,.85-4.3,2.55-1.13,1.7-1.7,3.85-1.7,6.45s.38,4.79,1.15,6.58c.77,1.78,1.3,2.91,1.6,3.38Zm6,9.05c.93,0,1.71-.34,2.33-1.02,.62-.68,.92-1.56,.92-2.62,0-.67-.15-1.36-.45-2.08s-.63-1.36-1-1.92l-6.55,1.35c-.03,1.43,.32,2.84,1.07,4.23,.75,1.38,1.98,2.07,3.68,2.07Zm16.5,13c-1.8,0-3.29-.63-4.48-1.9-1.18-1.27-1.77-2.85-1.77-4.75,0-1.1,.23-2.16,.7-3.17,.47-1.02,.83-1.76,1.1-2.22l.4-.65c-.4-1-.87-2.32-1.4-3.95s-.8-3.42-.8-5.35c0-2.97,.79-5.71,2.38-8.23,1.58-2.52,3.79-3.77,6.62-3.77,2.6,0,4.75,1.14,6.45,3.43,1.7,2.28,2.55,5.14,2.55,8.57,0,3.03-.42,5.54-1.28,7.52-.85,1.98-1.46,3.26-1.82,3.82l-.9,1.4c.03,2.37-.61,4.5-1.92,6.4-1.32,1.9-3.26,2.85-5.83,2.85Zm6-12.1c.33-.5,.88-1.63,1.62-3.4,.75-1.77,1.12-3.93,1.12-6.5s-.57-4.75-1.7-6.45c-1.13-1.7-2.57-2.55-4.3-2.55-1.9,0-3.38,.94-4.42,2.83-1.05,1.88-1.58,3.94-1.58,6.17,0,1.33,.23,2.76,.7,4.27,.47,1.52,.93,2.91,1.4,4.18l7.15,1.45Zm-6,9.1c1.7,0,2.92-.7,3.65-2.1s1.1-2.82,1.1-4.25l-6.55-1.3c-.33,.57-.66,1.21-.98,1.92-.32,.72-.48,1.41-.48,2.07,0,1.07,.31,1.94,.92,2.62,.62,.68,1.39,1.03,2.33,1.03Z"/></svg>