<?xml version="1.0" encoding="UTF-8"?><svg id="Layer_1" xmlns="http://www.w3.org/2000/svg" viewBox="0 0 48 48"><defs><style>.cls-1{fill:#36593e;}</style></defs><path class="cls-1" d="M8.15,22.8c-.57,0-1.07-.22-1.5-.65-.43-.43-.65-.93-.65-1.5s.22-1.07,.65-1.5c.43-.43,.93-.65,1.5-.65s1.07,.22,1.5,.65c.43,.43,.65,.93,.65,1.5s-.22,1.07-.65,1.5c-.43,.43-.93,.65-1.5,.65Zm-2.15,20.2v-9.3h-2v-8.25c0-.4,.16-.73,.47-.98s.71-.38,1.18-.38h5c.47,0,.86,.12,1.18,.38,.32,.25,.48,.58,.48,.98v8.25h-1.95v6.3H28.75v-12.15h-4.05c-2.17,0-4.02-.73-5.55-2.2s-2.3-3.25-2.3-5.35c0-1.53,.46-3,1.38-4.4,.92-1.4,2.21-2.38,3.88-2.95,.23-2.33,1.15-4.24,2.75-5.72,1.6-1.48,3.47-2.23,5.6-2.23s3.94,.74,5.53,2.23c1.58,1.48,2.51,3.39,2.78,5.73,1.67,.57,2.96,1.55,3.88,2.95,.92,1.4,1.37,2.87,1.37,4.4,0,2.1-.77,3.88-2.33,5.35-1.55,1.47-3.41,2.2-5.58,2.2h-4.35v12.15h10.55v3H6ZM24.7,24.85h11.4c1.27,0,2.4-.43,3.4-1.3,1-.87,1.5-1.95,1.5-3.25,0-1.03-.33-1.98-1-2.83s-1.48-1.48-2.45-1.88l-1.8-.75v-1.55c0-1.5-.53-2.76-1.6-3.78s-2.32-1.53-3.75-1.52c-1.4,0-2.63,.51-3.7,1.52-1.07,1.02-1.6,2.27-1.6,3.78v1.55l-1.8,.75c-.97,.4-1.78,1.02-2.45,1.88-.67,.85-1,1.79-1,2.83,0,1.3,.49,2.38,1.48,3.25,.98,.87,2.11,1.3,3.38,1.3Z"/></svg>