<?xml version="1.0" encoding="UTF-8"?><svg id="Layer_1" xmlns="http://www.w3.org/2000/svg" viewBox="0 0 75.86 104.89"><defs><style>.cls-1{fill:#36593e;}</style></defs><path class="cls-1" d="M62.37,80.22c-6.4,0-12.77-1.57-19.09-4.72s-12.01-7.24-17.05-12.28c-5.04-5.04-9.13-10.72-12.28-17.05-3.15-6.33-4.72-12.69-4.72-19.09,0-1,.34-1.84,1.02-2.52s1.52-1.02,2.52-1.02h11.02c.73,0,1.38,.25,1.93,.75,.55,.5,.91,1.17,1.06,2.01l2.13,9.92c.1,.73,.09,1.4-.04,2.01-.13,.6-.41,1.12-.83,1.54l-7.87,7.95c2.94,4.88,6.23,9.13,9.88,12.76,3.65,3.62,7.78,6.69,12.4,9.21l7.48-7.72c.52-.58,1.13-.98,1.81-1.22s1.36-.28,2.05-.12l9.37,2.05c.79,.16,1.44,.55,1.97,1.18,.52,.63,.79,1.36,.79,2.2v10.63c0,1-.34,1.84-1.02,2.52-.68,.68-1.52,1.02-2.52,1.02ZM17.8,43.37l6.38-6.46-1.81-8.66H13.94c0,2.05,.31,4.29,.94,6.73s1.6,5.24,2.91,8.39Zm29.06,28.58c2.15,1,4.49,1.81,7.01,2.44,2.52,.63,4.96,1,7.32,1.1v-8.43l-8.11-1.65-6.22,6.54Z"/></svg>