<?xml version="1.0" encoding="UTF-8"?><svg id="Layer_1" xmlns="http://www.w3.org/2000/svg" viewBox="0 0 48 48"><defs><style>.cls-1{fill:#fff;}.cls-2{fill:#f2a663;}</style></defs><g id="surface15501455"><path class="cls-2" d="M24,5C13.51,5,5,13.51,5,24s8.51,19,19,19,19-8.51,19-19S34.49,5,24,5Z"/><path class="cls-1" d="M26.57,29.04h4.92l.77-5h-5.69v-2.73c0-2.08,.68-3.92,2.62-3.92h3.12v-4.36c-.55-.07-1.71-.23-3.9-.23-4.57,0-7.25,2.41-7.25,7.92v3.32h-4.7v5h4.7v13.73c.93,.14,1.88,.23,2.84,.23,.88,0,1.73-.08,2.57-.2v-13.77Z"/></g></svg>