<?xml version="1.0" encoding="UTF-8"?><svg id="Layer_1" xmlns="http://www.w3.org/2000/svg" viewBox="0 0 48 48"><defs><style>.cls-1{fill:#f2a663;}</style></defs><path class="cls-1" d="M31.85,24.22l1.43,1.16,.21-.21c1.75-2.16,2.71-4.88,2.71-7.67,0-6.73-5.47-12.2-12.2-12.2s-12.2,5.47-12.2,12.2,5.47,12.2,12.2,12.2c3.21,0,6.24-1.24,8.52-3.48l.2-.2-1.31-1.34-.2,.2c-.45,.44-.95,.84-1.47,1.2l-2.76-3.72,2.27-2.6h1.17l2.72,2.52c-.33,.63-.71,1.21-1.12,1.72l-.18,.22Zm-3.74,2.77c-1.29,.56-2.67,.84-4.1,.84h-.01c-3.54,0-6.77-1.77-8.69-4.75l4.19-4.86h2.11l6.5,8.77Zm3.06-9.1h-2.75l-2.56,2.93-3.31-4.46h-1.05v-.86l4.44-2.93-6.3-2.97v6.76h-1l-4.25,4.93c-.48-1.22-.72-2.49-.72-3.78,0-5.7,4.63-10.33,10.33-10.33s10.33,4.63,10.33,10.33c0,.97-.14,1.95-.42,2.92l-2.73-2.54Zm-9.67-4.62v-.73l.64,.3-.64,.42Z"/><path class="cls-1" d="M40.12,17.49c0-8.89-7.23-16.12-16.12-16.12-4.05,0-7.93,1.51-10.9,4.24l-.21,.19,1.26,1.37,.21-.19c2.63-2.42,6.05-3.75,9.64-3.75,7.86,0,14.26,6.39,14.26,14.26s-6.4,14.26-14.26,14.26-14.26-6.4-14.26-14.26c0-3.58,1.33-7,3.75-9.64l.19-.21-1.37-1.26-.19,.21c-2.74,2.99-4.24,6.86-4.24,10.9,0,5.62,2.87,10.75,7.67,13.73,2.94,3.71,5.85,7.92,7.28,13.54H12.45v1.87h23.09v-1.87h-10.36c1.43-5.6,4.34-9.82,7.29-13.55,4.8-2.97,7.66-8.1,7.66-13.72Zm-16.12,24.65c-1.32-3.93-3.3-7.07-4.87-9.28,3.16,1,6.59,1,9.74,0-2.26,3.18-3.83,6.17-4.88,9.28Z"/></svg>