<?xml version="1.0" encoding="UTF-8"?><svg id="Layer_1" xmlns="http://www.w3.org/2000/svg" viewBox="0 0 48 48"><defs><style>.cls-1{fill:#fff;}.cls-2{fill:#f2a663;}.cls-3{fill:none;stroke:#fff;stroke-linecap:round;stroke-linejoin:round;stroke-width:2px;}</style></defs><path class="cls-2" d="M41.99,15.53c-.03-.71-.14-1.39-.32-2.05-.1-.42-.24-.83-.4-1.22-1.49-3.66-5.09-6.26-9.27-6.26H16c-.77,0-1.53,.09-2.25,.26-2.48,.57-4.62,2.08-6.02,4.13-.22,.33-.43,.68-.61,1.03-.34,.65-.61,1.33-.79,2.05-.06,.22-.11,.45-.16,.68-.11,.6-.17,1.22-.17,1.85v16c0,.84,.1,1.66,.31,2.44,.11,.46,.26,.91,.44,1.34,.24,.61,.55,1.18,.91,1.72,.24,.36,.49,.69,.77,1.01,.37,.43,.77,.82,1.2,1.18,.49,.41,1.03,.78,1.59,1.09h0c.2,.11,.4,.21,.6,.3,.64,.3,1.32,.53,2.02,.68h0c.09,.02,.18,.04,.27,.06,.61,.12,1.24,.18,1.88,.18h16c.39,0,.76-.02,1.14-.07h.01c.33-.03,.66-.09,.98-.16,.47-.1,.93-.24,1.38-.41,.24-.09,.47-.19,.7-.3,.23-.1,.45-.22,.67-.34,.53-.3,1.03-.65,1.5-1.04,.54-.44,1.02-.94,1.46-1.49,.15-.19,.3-.39,.44-.6,.23-.34,.44-.69,.63-1.06,.42-.82,.73-1.7,.91-2.62,.12-.62,.18-1.26,.18-1.91V16c0-.16,0-.32-.01-.47Z"/><g><path class="cls-3" d="M30,11h-12c-3.9,0-7,3.1-7,7v12c0,3.9,3.1,7,7,7h12c3.9,0,7-3.1,7-7v-12c0-3.9-3.1-7-7-7Z"/><circle class="cls-1" cx="31" cy="16" r="1"/></g><circle class="cls-3" cx="24" cy="24" r="6"/></svg>