<?xml version="1.0" encoding="UTF-8"?><svg id="Layer_1" xmlns="http://www.w3.org/2000/svg" viewBox="0 0 48 48"><defs><style>.cls-1{fill:#f2a663;}</style></defs><path class="cls-1" d="M15.24,37.5c-.97-1.97-1.48-4.38-1.53-7.16-.04-2.67,.94-5.27,2.88-7.11s4.49-2.88,7.32-2.88,5.21,.91,7.28,2.79c2.04,1.85,3.03,4.08,3.03,6.81,0,.43,.17,.8,.48,1.05,.18,.14,.49,.31,.95,.31,.5,0,.81-.2,.98-.37,.17-.17,.38-.48,.38-.99,0-3.45-1.31-6.41-3.89-8.79-2.56-2.35-5.65-3.55-9.2-3.55s-6.62,1.19-9.15,3.55c-2.55,2.38-3.84,5.33-3.84,8.78s.62,6.22,1.86,8.71c1,2.05,2.35,4.04,4.02,5.94,.65,.74,1.48,1.33,2.45,1.45,0,0,.02,0,.03,0,.35-.02,.41-.17,.52-.28,.24-.21,.39-.49,.45-.81,.05-.28,.02-.7-.41-1.12-2.03-2.1-3.59-4.23-4.63-6.34Z"/><path class="cls-1" d="M38.42,39.28c-.3-.21-.68-.28-1.04-.21-.45,.07-.87,.13-1.24,.16-.34,.03-.68,.05-.97,.05-2.65,0-4.93-.87-6.97-2.66-2-1.76-2.97-3.94-2.97-6.67,0-.37-.11-.69-.31-.95-.25-.31-.62-.48-1.05-.48s-.8,.17-1.05,.48c-.21,.26-.31,.59-.31,.95,0,3.46,1.28,6.37,3.79,8.65,2.49,2.26,5.47,3.41,8.87,3.41h.36s0-.01,0-.01c.15,0,.35,0,.59-.02,.54-.03,1.17-.13,1.87-.33,.53-.11,.78-.41,.89-.65l.03-.06c.11-.28,.13-.57,.05-.92-.09-.31-.27-.56-.53-.74Z"/><path class="cls-1" d="M10.31,7.21c.17,.11,.36,.16,.57,.16,.13,0,.26-.02,.4-.06h.09l.18-.1c1.9-1.01,3.91-1.79,5.97-2.3,4.09-1.01,8.65-1.04,12.86,.05,2.15,.56,4.21,1.32,6.12,2.26l.07,.03c.4,.15,.81,.14,1.12-.03,.27-.13,.48-.32,.63-.56,.13-.2,.27-.52,.2-.95-.07-.43-.35-.77-.78-.95-2.08-1.06-4.32-1.9-6.66-2.51-2.31-.59-4.78-.89-7.15-.89s-4.76,.3-7.05,.89c-2.31,.58-4.57,1.47-6.75,2.65-.36,.22-.57,.59-.57,1.03,0,.32,.1,.62,.29,.84,.13,.18,.28,.32,.45,.43Z"/><path class="cls-1" d="M37.28,17.23c-3.69-3.4-8.17-5.13-13.3-5.13s-9.46,1.75-13.17,5.21c-3.72,3.48-5.61,7.72-5.61,12.63,0,1.5,.14,3.01,.42,4.48,.28,1.48,.66,2.94,1.16,4.37,.17,.45,.51,.75,.94,.84,.32,.07,.66,.03,.98-.11l.16-.1c.13-.1,.29-.23,.42-.4,.14-.19,.34-.59,.12-1.18-.63-1.72-1.05-3.27-1.24-4.61-.2-1.35-.3-2.46-.3-3.29,0-4.28,1.54-7.76,4.72-10.64,3.16-2.86,6.99-4.32,11.37-4.32s8.21,1.45,11.37,4.31c3.18,2.89,4.72,6.37,4.72,10.64,0,1.15-.42,2.09-1.29,2.89-.89,.82-1.87,1.21-3.07,1.21s-2.27-.4-3.2-1.22c-.9-.78-1.33-1.72-1.33-2.87,0-1.94-.72-3.59-2.15-4.91-1.41-1.31-3.11-1.97-5.06-1.97s-3.67,.67-5.08,1.99-2.15,3.24-2.12,5.19c.06,4.06,1.34,7.57,3.82,10.44,2.52,2.92,5.77,4.89,9.66,5.88l.14,.03c.13,.04,.26,.05,.37,.05,.26,0,.47-.08,.61-.17l.08-.06c.26-.2,.43-.49,.51-.84,.09-.33,.06-.65-.1-.98-.17-.3-.47-.53-.89-.66-3.26-.97-6.02-2.68-8.19-5.08-2.14-2.37-3.23-5.37-3.23-8.92,0-1.18,.43-2.14,1.31-2.93,.91-.82,1.95-1.21,3.17-1.21s2.24,.4,3.13,1.21c.87,.79,1.29,1.76,1.29,2.94,0,1.91,.73,3.54,2.17,4.86,1.41,1.28,3.18,1.96,5.13,1.96s3.63-.66,5.03-1.97c1.4-1.32,2.11-2.95,2.11-4.85,0-5.02-1.88-9.29-5.58-12.71Z"/><path class="cls-1" d="M44.38,16.97l-.03-.05c-2.37-3.23-5.38-5.74-8.95-7.46-3.57-1.72-7.43-2.59-11.46-2.59s-7.88,.89-11.44,2.65c-3.56,1.77-6.54,4.3-8.87,7.51l-.06,.09c-.14,.26-.21,.55-.21,.85,0,.48,.25,.88,.67,1.08,.21,.11,.43,.17,.66,.17,.12,0,.23-.02,.35-.05,.29-.08,.56-.28,.85-.63,2.1-2.83,4.75-5.06,7.89-6.6,3.15-1.55,6.57-2.34,10.17-2.34s7.05,.78,10.25,2.32c3.19,1.54,5.85,3.77,7.93,6.65,.58,.71,1.52,.72,2.08,.16,.22-.22,.36-.47,.41-.75,.06-.33-.02-.67-.25-1.03Z"/></svg>