<?xml version="1.0" encoding="UTF-8"?><svg id="Layer_1" xmlns="http://www.w3.org/2000/svg" viewBox="0 0 48 48"><defs><style>.cls-1{fill:#36593e;}</style></defs><path class="cls-1" d="M39.8,42l-13.15-13.15c-1,.87-2.17,1.54-3.5,2.02-1.33,.48-2.75,.72-4.25,.73-3.6,0-6.65-1.25-9.15-3.75-2.5-2.5-3.75-5.52-3.75-9.05s1.25-6.55,3.75-9.05c2.5-2.5,5.53-3.75,9.1-3.75,3.53,0,6.54,1.25,9.02,3.75,2.48,2.5,3.73,5.52,3.73,9.05,0,1.43-.23,2.82-.7,4.15-.47,1.33-1.17,2.58-2.1,3.75l13.2,13.1-2.2,2.2Zm-20.95-13.4c2.7,0,5-.96,6.9-2.88,1.9-1.92,2.85-4.23,2.85-6.93s-.95-5.01-2.85-6.93c-1.9-1.92-4.2-2.88-6.9-2.88s-5.06,.96-6.98,2.88c-1.92,1.92-2.88,4.23-2.88,6.93s.96,5.01,2.88,6.92c1.92,1.92,4.24,2.87,6.97,2.88Z"/></svg>