<?xml version="1.0" encoding="UTF-8"?><svg id="Layer_1" xmlns="http://www.w3.org/2000/svg" viewBox="0 0 48 48"><defs><style>.cls-1{fill:#f2a663;}</style></defs><path class="cls-1" d="M22.5,9.5V2h3v7.5h-3Zm12.8,5.3l-2.1-2.1,5.3-5.35,2.1,2.15-5.3,5.3Zm3.2,10.7v-3h7.5v3h-7.5Zm-16,20.5v-7.5h3v7.5h-3ZM12.65,14.75l-5.25-5.25,2.1-2.1,5.3,5.3-2.15,2.05Zm25.9,25.85l-5.35-5.3,2.05-2.05,5.4,5.2-2.1,2.15ZM2,25.5v-3h7.5v3H2Zm7.55,15.1l-2.15-2.1,5.25-5.25,1.1,1,1.1,1.05-5.3,5.3Zm14.45-4.6c-3.33,0-6.17-1.17-8.5-3.5-2.33-2.33-3.5-5.17-3.5-8.5s1.17-6.17,3.5-8.5c2.33-2.33,5.17-3.5,8.5-3.5s6.17,1.17,8.5,3.5c2.33,2.33,3.5,5.17,3.5,8.5s-1.17,6.17-3.5,8.5c-2.33,2.33-5.17,3.5-8.5,3.5Zm0-3c2.5,0,4.62-.88,6.38-2.62s2.62-3.88,2.62-6.38-.88-4.62-2.62-6.38-3.88-2.62-6.38-2.62-4.62,.88-6.38,2.62-2.62,3.88-2.62,6.38,.88,4.62,2.62,6.38,3.88,2.62,6.38,2.62Z"/></svg>