<?xml version="1.0" encoding="UTF-8"?><svg id="Layer_1" xmlns="http://www.w3.org/2000/svg" viewBox="0 0 48 48"><defs><style>.cls-1{fill:#fff;}.cls-2{fill:#f2a663;}</style></defs><path class="cls-2" d="M43.15,33.9c-.4,2.1-2.1,3.7-4.2,4-3.3,.5-8.8,1.1-15,1.1s-11.6-.6-15-1.1c-2.1-.3-3.8-1.9-4.2-4-.4-2.3-.8-5.7-.8-9.9s.4-7.6,.8-9.9c.4-2.1,2.1-3.7,4.2-4,3.3-.5,8.8-1.1,15-1.1s11.6,.6,15,1.1c2.1,.3,3.8,1.9,4.2,4,.4,2.3,.9,5.7,.9,9.9-.1,4.2-.5,7.6-.9,9.9Z"/><path class="cls-1" d="M19.95,31v-14l12,7-12,7Z"/></svg>